# xmcd
#
# Track frame offsets: 
#        150
#        18363
#        29272
#        39667
#        54739
#        68089
#        82983
#        95968
#        104646
#        130357
#        136870
#        151932
#        169800
#        199178
#        204545
#        227150
#        238415
#        242551
#        261923
#        265653
#
# Disc length: 3705 seconds
#
# Revision: 2
# Processed by: cddbd v1.5.2PL0 Copyright (c) Steve Scherf et al.
# Submitted via: ExactAudioCopy v0.99pb4
#
DISCID=200e7714
DTITLE=Johnston, Daniel - Yip! Jump Music
DYEAR=2006
DGENRE=Outsider
TTITLE0=Chord Organ Blues
TTITLE1=The Beatles
TTITLE2=Sorry Entertainer
TTITLE3=Speeding Motorcycle
TTITLE4=Casper The Friendly Ghost
TTITLE5=Don't Let The Sun Go Down On Your Grievances
TTITLE6=Danny Don't Rapp
TTITLE7=Sweet Heart
TTITLE8=King Kong
TTITLE9=The Creature/3rd Chair
TTITLE10=I Live For Love
TTITLE11=Almost Got Hit By A Truck
TTITLE12=Worried Shoes
TTITLE13=Dead Lover's Twisted Heart
TTITLE14=Rocket Ship
TTITLE15=God
TTITLE16=Love Defined
TTITLE17=Museum Of Love
TTITLE18=Rarely
TTITLE19=I Remember Painfully
EXTD=
EXTT0=
EXTT1=
EXTT2=
EXTT3=
EXTT4=
EXTT5=
EXTT6=
EXTT7=
EXTT8=
EXTT9=
EXTT10=
EXTT11=
EXTT12=
EXTT13=
EXTT14=
EXTT15=
EXTT16=
EXTT17=
EXTT18=
EXTT19=
PLAYORDER=
